<?xml version="1.0" standalone="no"?>
<!DOCTYPE svg PUBLIC "-//W3C//DTD SVG 20010904//EN"
 "http://www.w3.org/TR/2001/REC-SVG-20010904/DTD/svg10.dtd">
<svg version="1.0" xmlns="http://www.w3.org/2000/svg"
 width="75.000000pt" height="75.000000pt" viewBox="0 0 75.000000 75.000000"
 preserveAspectRatio="xMidYMid meet">
<metadata>
Created by potrace 1.11, written by Peter Selinger 2001-2013
</metadata>
<g transform="translate(0.000000,75.000000) scale(0.100000,-0.100000)"
fill="#000000" stroke="none">
<path d="M474 601 c-51 -32 -184 -177 -184 -201 0 -53 88 -128 131 -111 34 12
199 187 199 209 0 21 -64 94 -96 110 -16 8 -27 7 -50 -7z m74 -70 c2 -1 -36
-41 -85 -90 -57 -58 -91 -86 -98 -80 -6 7 -5 13 3 18 8 5 14 12 15 17 1 5 5 8
10 6 4 -1 12 9 17 23 5 14 12 25 15 25 4 0 3 -6 -1 -12 -5 -7 6 0 24 17 32 30
40 41 22 30 -5 -3 -10 -4 -10 0 0 3 11 10 25 15 14 5 25 13 24 17 -3 20 2 22
39 14z"/>
<path d="M210 315 c-13 -14 -20 -28 -16 -32 9 -10 36 8 54 35 13 19 13 22 0
22 -8 0 -25 -11 -38 -25z"/>
<path d="M238 290 c-27 -28 -46 -55 -43 -60 4 -6 -4 -24 -16 -41 l-22 -31 31
16 c17 9 38 16 46 16 9 0 39 23 67 50 l52 51 -23 24 c-13 14 -28 25 -34 25 -5
0 -32 -23 -58 -50z"/>
</g>
</svg>
